<svg width="1361" height="953" viewBox="0 0 1361 953" fill="none" xmlns="http://www.w3.org/2000/svg">
<path d="M402.141 159.221H320.271V240.367H402.141V159.221Z" fill="url(#paint0_linear_1090_689)" fill-opacity="0.02"/>
<path d="M322.318 633.927H240.448V715.073H322.318V633.927Z" fill="url(#paint1_linear_1090_689)" fill-opacity="0.02"/>
<path d="M1120.55 238.338H1038.68V319.485H1120.55V238.338Z" fill="url(#paint2_linear_1090_689)" fill-opacity="0.02"/>
<path d="M81.8235 2H2V81.1177M81.8235 2V81.1177M81.8235 2H161.647M81.8235 81.1177H2M81.8235 81.1177H161.647M81.8235 81.1177V160.235M2 81.1177V160.235M161.647 2V81.1177M161.647 2H241.471M161.647 81.1177H241.471M161.647 81.1177V160.235M241.471 2V81.1177M241.471 2H321.294M241.471 81.1177H321.294M241.471 81.1177V160.235M321.294 2V81.1177M321.294 2H401.118M321.294 81.1177H401.118M321.294 81.1177V160.235M401.118 2V81.1177M401.118 2H480.941M401.118 81.1177H480.941M401.118 81.1177V160.235M480.941 2V81.1177M480.941 2H560.765M480.941 81.1177H560.765M480.941 81.1177V160.235M560.765 2V81.1177M560.765 2H640.588M560.765 81.1177H640.588M560.765 81.1177V160.235M640.588 2V81.1177M640.588 2H720.412M640.588 81.1177H720.412M640.588 81.1177V160.235M720.412 2V81.1177M720.412 2H800.235M720.412 81.1177H800.235M720.412 81.1177V160.235M800.235 2V81.1177M800.235 2H880.059M800.235 81.1177H880.059M800.235 81.1177V160.235M880.059 2V81.1177M880.059 2H959.882M880.059 81.1177H959.882M880.059 81.1177V160.235M959.882 2V81.1177M959.882 2H1039.71M959.882 81.1177H1039.71M959.882 81.1177V160.235M1039.71 2V81.1177M1039.71 2H1119.53M1039.71 81.1177H1119.53M1039.71 81.1177V160.235M1119.53 2V81.1177M1119.53 2H1199.35M1119.53 81.1177H1199.35M1119.53 81.1177V160.235M1199.35 2V81.1177M1199.35 2H1279.18M1199.35 81.1177H1279.18M1199.35 81.1177V160.235M1279.18 2V81.1177M1279.18 2H1359V81.1177M1279.18 81.1177H1359M1279.18 81.1177V160.235M1359 81.1177V160.235M81.8235 160.235H2M81.8235 160.235H161.647M81.8235 160.235V239.353M2 160.235V239.353M161.647 160.235H241.471M161.647 160.235V239.353M241.471 160.235H321.294M241.471 160.235V239.353M321.294 160.235H401.118M321.294 160.235V239.353M401.118 160.235H480.941M401.118 160.235V239.353M480.941 160.235H560.765M480.941 160.235V239.353M560.765 160.235H640.588M560.765 160.235V239.353M640.588 160.235H720.412M640.588 160.235V239.353M720.412 160.235H800.235M720.412 160.235V239.353M800.235 160.235H880.059M800.235 160.235V239.353M880.059 160.235H959.882M880.059 160.235V239.353M959.882 160.235H1039.71M959.882 160.235V239.353M1039.71 160.235H1119.53M1039.71 160.235V239.353M1119.53 160.235H1199.35M1119.53 160.235V239.353M1199.35 160.235H1279.18M1199.35 160.235V239.353M1279.18 160.235H1359M1279.18 160.235V239.353M1359 160.235V239.353M81.8235 239.353H2M81.8235 239.353H161.647M81.8235 239.353V318.471M2 239.353V318.471M161.647 239.353H241.471M161.647 239.353V318.471M241.471 239.353H321.294M241.471 239.353V318.471M321.294 239.353H401.118M321.294 239.353V318.471M401.118 239.353H480.941M401.118 239.353V318.471M480.941 239.353H560.765M480.941 239.353V318.471M560.765 239.353H640.588M560.765 239.353V318.471M640.588 239.353H720.412M640.588 239.353V318.471M720.412 239.353H800.235M720.412 239.353V318.471M800.235 239.353H880.059M800.235 239.353V318.471M880.059 239.353H959.882M880.059 239.353V318.471M959.882 239.353H1039.71M959.882 239.353V318.471M1039.71 239.353H1119.53M1039.71 239.353V318.471M1119.53 239.353H1199.35M1119.53 239.353V318.471M1199.35 239.353H1279.18M1199.35 239.353V318.471M1279.18 239.353H1359M1279.18 239.353V318.471M1359 239.353V318.471M81.8235 318.471H2M81.8235 318.471H161.647M81.8235 318.471V397.588M2 318.471V397.588M161.647 318.471H241.471M161.647 318.471V397.588M241.471 318.471H321.294M241.471 318.471V397.588M321.294 318.471H401.118M321.294 318.471V397.588M401.118 318.471H480.941M401.118 318.471V397.588M480.941 318.471H560.765M480.941 318.471V397.588M560.765 318.471H640.588M560.765 318.471V397.588M640.588 318.471H720.412M640.588 318.471V397.588M720.412 318.471H800.235M720.412 318.471V397.588M800.235 318.471H880.059M800.235 318.471V397.588M880.059 318.471H959.882M880.059 318.471V397.588M959.882 318.471H1039.71M959.882 318.471V397.588M1039.71 318.471H1119.53M1039.71 318.471V397.588M1119.53 318.471H1199.35M1119.53 318.471V397.588M1199.35 318.471H1279.18M1199.35 318.471V397.588M1279.18 318.471H1359M1279.18 318.471V397.588M1359 318.471V397.588M81.8235 397.588H2M81.8235 397.588H161.647M81.8235 397.588V476.706M2 397.588V476.706M161.647 397.588H241.471M161.647 397.588V476.706M241.471 397.588H321.294M241.471 397.588V476.706M321.294 397.588H401.118M321.294 397.588V476.706M401.118 397.588H480.941M401.118 397.588V476.706M480.941 397.588H560.765M480.941 397.588V476.706M560.765 397.588H640.588M560.765 397.588V476.706M640.588 397.588H720.412M640.588 397.588V476.706M720.412 397.588H800.235M720.412 397.588V476.706M800.235 397.588H880.059M800.235 397.588V476.706M880.059 397.588H959.882M880.059 397.588V476.706M959.882 397.588H1039.71M959.882 397.588V476.706M1039.71 397.588H1119.53M1039.71 397.588V476.706M1119.53 397.588H1199.35M1119.53 397.588V476.706M1199.35 397.588H1279.18M1199.35 397.588V476.706M1279.18 397.588H1359M1279.18 397.588V476.706M1359 397.588V476.706M81.8235 476.706H2M81.8235 476.706H161.647M81.8235 476.706V555.824M2 476.706V555.824M161.647 476.706H241.471M161.647 476.706V555.824M241.471 476.706H321.294M241.471 476.706V555.824M321.294 476.706H401.118M321.294 476.706V555.824M401.118 476.706H480.941M401.118 476.706V555.824M480.941 476.706H560.765M480.941 476.706V555.824M560.765 476.706H640.588M560.765 476.706V555.824M640.588 476.706H720.412M640.588 476.706V555.824M720.412 476.706H800.235M720.412 476.706V555.824M800.235 476.706H880.059M800.235 476.706V555.824M880.059 476.706H959.882M880.059 476.706V555.824M959.882 476.706H1039.71M959.882 476.706V555.824M1039.71 476.706H1119.53M1039.71 476.706V555.824M1119.53 476.706H1199.35M1119.53 476.706V555.824M1199.35 476.706H1279.18M1199.35 476.706V555.824M1279.18 476.706H1359M1279.18 476.706V555.824M1359 476.706V555.824M81.8235 555.824H2M81.8235 555.824H161.647M81.8235 555.824V634.941M2 555.824V634.941M161.647 555.824H241.471M161.647 555.824V634.941M241.471 555.824H321.294M241.471 555.824V634.941M321.294 555.824H401.118M321.294 555.824V634.941M401.118 555.824H480.941M401.118 555.824V634.941M480.941 555.824H560.765M480.941 555.824V634.941M560.765 555.824H640.588M560.765 555.824V634.941M640.588 555.824H720.412M640.588 555.824V634.941M720.412 555.824H800.235M720.412 555.824V634.941M800.235 555.824H880.059M800.235 555.824V634.941M880.059 555.824H959.882M880.059 555.824V634.941M959.882 555.824H1039.71M959.882 555.824V634.941M1039.71 555.824H1119.53M1039.71 555.824V634.941M1119.53 555.824H1199.35M1119.53 555.824V634.941M1199.35 555.824H1279.18M1199.35 555.824V634.941M1279.18 555.824H1359M1279.18 555.824V634.941M1359 555.824V634.941M81.8235 634.941H2M81.8235 634.941H161.647M81.8235 634.941V714.059M2 634.941V714.059M161.647 634.941H241.471M161.647 634.941V714.059M241.471 634.941H321.294M241.471 634.941V714.059M321.294 634.941H401.118M321.294 634.941V714.059M401.118 634.941H480.941M401.118 634.941V714.059M480.941 634.941H560.765M480.941 634.941V714.059M560.765 634.941H640.588M560.765 634.941V714.059M640.588 634.941H720.412M640.588 634.941V714.059M720.412 634.941H800.235M720.412 634.941V714.059M800.235 634.941H880.059M800.235 634.941V714.059M880.059 634.941H959.882M880.059 634.941V714.059M959.882 634.941H1039.71M959.882 634.941V714.059M1039.71 634.941H1119.53M1039.71 634.941V714.059M1119.53 634.941H1199.35M1119.53 634.941V714.059M1199.35 634.941H1279.18M1199.35 634.941V714.059M1279.18 634.941H1359M1279.18 634.941V714.059M1359 634.941V714.059M81.8235 714.059H2M81.8235 714.059H161.647M81.8235 714.059V793.177M2 714.059V793.177M161.647 714.059H241.471M161.647 714.059V793.177M241.471 714.059H321.294M241.471 714.059V793.177M321.294 714.059H401.118M321.294 714.059V793.177M401.118 714.059H480.941M401.118 714.059V793.177M480.941 714.059H560.765M480.941 714.059V793.177M560.765 714.059H640.588M560.765 714.059V793.177M640.588 714.059H720.412M640.588 714.059V793.177M720.412 714.059H800.235M720.412 714.059V793.177M800.235 714.059H880.059M800.235 714.059V793.177M880.059 714.059H959.882M880.059 714.059V793.177M959.882 714.059H1039.71M959.882 714.059V793.177M1039.71 714.059H1119.53M1039.71 714.059V793.177M1119.53 714.059H1199.35M1119.53 714.059V793.177M1199.35 714.059H1279.18M1199.35 714.059V793.177M1279.18 714.059H1359M1279.18 714.059V793.177M1359 714.059V793.177M81.8235 793.177H2M81.8235 793.177H161.647M81.8235 793.177V872.294M2 793.177V872.294M161.647 793.177H241.471M161.647 793.177V872.294M241.471 793.177H321.294M241.471 793.177V872.294M321.294 793.177H401.118M321.294 793.177V872.294M401.118 793.177H480.941M401.118 793.177V872.294M480.941 793.177H560.765M480.941 793.177V872.294M560.765 793.177H640.588M560.765 793.177V872.294M640.588 793.177H720.412M640.588 793.177V872.294M720.412 793.177H800.235M720.412 793.177V872.294M800.235 793.177H880.059M800.235 793.177V872.294M880.059 793.177H959.882M880.059 793.177V872.294M959.882 793.177H1039.71M959.882 793.177V872.294M1039.71 793.177H1119.53M1039.71 793.177V872.294M1119.53 793.177H1199.35M1119.53 793.177V872.294M1199.35 793.177H1279.18M1199.35 793.177V872.294M1279.18 793.177H1359M1279.18 793.177V872.294M1359 793.177V872.294M81.8235 872.294H2M81.8235 872.294H161.647M81.8235 872.294V951.412M2 872.294V951.412H81.8235M161.647 872.294H241.471M161.647 872.294V951.412M241.471 872.294H321.294M241.471 872.294V951.412M321.294 872.294H401.118M321.294 872.294V951.412M401.118 872.294H480.941M401.118 872.294V951.412M480.941 872.294H560.765M480.941 872.294V951.412M560.765 872.294H640.588M560.765 872.294V951.412M640.588 872.294H720.412M640.588 872.294V951.412M720.412 872.294H800.235M720.412 872.294V951.412M800.235 872.294H880.059M800.235 872.294V951.412M880.059 872.294H959.882M880.059 872.294V951.412M959.882 872.294H1039.71M959.882 872.294V951.412M1039.71 872.294H1119.53M1039.71 872.294V951.412M1119.53 872.294H1199.35M1119.53 872.294V951.412M1199.35 872.294H1279.18M1199.35 872.294V951.412M1279.18 872.294H1359M1279.18 872.294V951.412M1359 872.294V951.412H1279.18M81.8235 951.412H161.647M161.647 951.412H241.471M241.471 951.412H321.294M321.294 951.412H401.118M401.118 951.412H480.941M480.941 951.412H560.765M560.765 951.412H640.588M640.588 951.412H720.412M720.412 951.412H800.235M800.235 951.412H880.059M880.059 951.412H959.882M959.882 951.412H1039.71M1039.71 951.412H1119.53M1119.53 951.412H1199.35M1199.35 951.412H1279.18" stroke="url(#paint3_radial_1090_689)" stroke-opacity="0.08" stroke-width="2.43514"/>
<defs>
<linearGradient id="paint0_linear_1090_689" x1="361.206" y1="159.221" x2="361.206" y2="240.367" gradientUnits="userSpaceOnUse">
<stop stop-color="white" stop-opacity="0"/>
<stop offset="1" stop-color="white"/>
</linearGradient>
<linearGradient id="paint1_linear_1090_689" x1="281.383" y1="633.927" x2="281.383" y2="715.073" gradientUnits="userSpaceOnUse">
<stop stop-color="white" stop-opacity="0"/>
<stop offset="1" stop-color="white"/>
</linearGradient>
<linearGradient id="paint2_linear_1090_689" x1="1079.62" y1="238.338" x2="1079.62" y2="319.485" gradientUnits="userSpaceOnUse">
<stop stop-color="white" stop-opacity="0"/>
<stop offset="1" stop-color="white"/>
</linearGradient>
<radialGradient id="paint3_radial_1090_689" cx="0" cy="0" r="1" gradientUnits="userSpaceOnUse" gradientTransform="translate(680.5 502.064) rotate(90) scale(448.333 679.523)">
<stop stop-color="white"/>
<stop offset="1" stop-color="white" stop-opacity="0"/>
</radialGradient>
</defs>
</svg>
