<svg width="296" height="34" viewBox="0 0 296 34" fill="none" xmlns="http://www.w3.org/2000/svg">
    <path d="M0 1.18192H4.2489V7.03867H10.7146V1.18192H14.9635V16.6183H10.7146V10.58H4.2489V16.6183H0V1.18192Z" fill="white"/>
    <path d="M24.3673 1.00031H25.0139C27.5232 1.00031 29.3244 1.46189 30.4174 2.38505C31.5104 3.30821 32.0569 4.82915 32.0569 6.94787H27.808C27.808 6.08525 27.5617 5.48746 27.0691 5.15452C26.5918 4.80645 25.799 4.63241 24.6906 4.63241C23.3359 4.63241 22.4122 4.92752 21.9196 5.51773C21.4424 6.10795 21.2037 7.23541 21.2037 8.90012C21.2037 10.5648 21.4424 11.6923 21.9196 12.2825C22.4122 12.8727 23.3359 13.1678 24.6906 13.1678C25.799 13.1678 26.5918 12.9938 27.0691 12.6457C27.5617 12.2976 27.808 11.6847 27.808 10.807H32.0569C32.0569 12.956 31.5104 14.492 30.4174 15.4152C29.3244 16.3383 27.5232 16.7999 25.0139 16.7999H24.3673C21.7041 16.7999 19.7874 16.2097 18.6174 15.0293C17.4475 13.8488 16.8625 11.9117 16.8625 9.21793V8.58231C16.8625 5.88851 17.4475 3.95139 18.6174 2.77096C19.7874 1.59053 21.7041 1.00031 24.3673 1.00031Z" fill="white"/>
    <path d="M49.2266 16.6183H44.1002L39.2047 10.6254H38.1425V16.6183H33.8936V1.18192H38.1425V6.99327H39.2047L44.054 1.18192H49.1804L42.7147 8.80932L49.2266 16.6183Z" fill="white"/>
    <path d="M64.3739 6.67546C64.3739 8.58231 63.6427 9.75517 62.1802 10.1941C62.9807 10.3605 63.5272 10.6859 63.8197 11.1702C64.1276 11.6545 64.2816 12.343 64.2816 13.2359V16.6183H60.0327V13.9851C60.0327 13.183 59.8556 12.623 59.5016 12.3052C59.1629 11.9723 58.5702 11.8058 57.7235 11.8058H54.5368V16.6183H50.2879V1.18192H58.4624C60.5253 1.18192 62.0263 1.5754 62.9653 2.36235C63.9044 3.1493 64.3739 4.39027 64.3739 6.08525V6.67546ZM57.9544 8.49151C58.8165 8.49151 59.3861 8.37044 59.6632 8.1283C59.9403 7.88616 60.0789 7.36405 60.0789 6.56196C60.0789 5.75987 59.9403 5.23776 59.6632 4.99562C59.3861 4.75348 58.8165 4.63241 57.9544 4.63241H54.5368V8.49151H57.9544Z" fill="white"/>
    <path d="M13.4857 17.5639V21.1052H8.86731V33.0003H4.61841V21.1052H3.93416e-05V17.5639H13.4857Z" fill="white"/>
    <path d="M14.8342 17.5639H27.1653V20.969H19.1293V23.5342H26.7958V26.8485H19.1293V29.5952H27.2576V33.0003H14.8342V17.5639Z" fill="white"/>
    <path d="M40.6735 33.0003L39.9345 30.6849H33.515L32.776 33.0003H28.2269L33.6073 17.5639H39.7036L45.084 33.0003H40.6735ZM38.8261 27.189L36.9095 21.196H36.54L34.6234 27.189H38.8261Z" fill="white"/>
    <path d="M58.5805 17.5639H65V33.0003H60.8204V21.5365L57.8646 28.5964H53.2924L50.3367 21.5365V33.0003H46.1571V17.5639H52.5997L55.6016 24.6465L58.5805 17.5639Z" fill="white"/>
    <path d="M84.5011 1.08313C88.8394 1.08313 91.9744 1.95396 93.9061 3.69563C95.8694 5.43729 96.8511 8.22396 96.8511 12.0556V13.2906C96.8511 17.0906 95.8694 19.8615 93.9061 21.6031C91.9744 23.3131 88.8394 24.1681 84.5011 24.1681H76.8061V33.3831H68.0661V1.08313H84.5011ZM83.4561 16.9481C85.2928 16.9481 86.5119 16.6631 87.1136 16.0931C87.7153 15.5231 88.0161 14.3831 88.0161 12.6731C88.0161 10.9631 87.7153 9.82313 87.1136 9.25313C86.5119 8.68312 85.2928 8.39813 83.4561 8.39813H76.8061V16.9481H83.4561Z" fill="#733DC4"/>
    <path d="M100.537 1.08313H125.902V8.20812H109.372V13.5756H125.142V20.5106H109.372V26.2581H126.092V33.3831H100.537V1.08313Z" fill="#733DC4"/>
    <path d="M145.439 16.2831H161.161V22.7906C161.161 26.654 159.942 29.4565 157.504 31.1981C155.097 32.9081 151.329 33.7631 146.199 33.7631H144.869C139.264 33.7631 135.242 32.5281 132.804 30.0581C130.365 27.5881 129.146 23.5348 129.146 17.8981V16.5681C129.146 10.9315 130.365 6.87813 132.804 4.40813C135.274 1.93813 139.327 0.703125 144.964 0.703125H146.294C151.424 0.703125 155.129 1.62146 157.409 3.45812C159.72 5.26312 160.94 8.23979 161.066 12.3881H152.279C152.247 10.7098 151.709 9.55396 150.664 8.92062C149.619 8.25562 147.94 7.92313 145.629 7.92313C142.652 7.92313 140.641 8.55646 139.596 9.82312C138.583 11.0898 138.076 13.5598 138.076 17.2331C138.076 20.9381 138.615 23.424 139.691 24.6906C140.8 25.9256 142.969 26.5431 146.199 26.5431C148.637 26.5431 150.331 26.2898 151.281 25.7831C152.263 25.2448 152.801 24.2315 152.896 22.7431H145.439V16.2831Z" fill="#733DC4"/>
    <path d="M188.2 33.3831L186.68 28.5381H173.475L171.955 33.3831H162.597L173.665 1.08313H186.205L197.272 33.3831H188.2ZM184.4 21.2231L180.457 8.68312H179.697L175.755 21.2231H184.4Z" fill="#733DC4"/>
    <path d="M212.214 0.703125H213.449C218.579 0.703125 222.157 1.46312 224.184 2.98312C226.242 4.47146 227.303 7.09979 227.367 10.8681H218.817C218.817 9.63312 218.389 8.80979 217.534 8.39813C216.711 7.95479 215.112 7.73313 212.737 7.73313C210.678 7.73313 209.269 7.92313 208.509 8.30313C207.749 8.68313 207.369 9.37979 207.369 10.3931C207.369 11.6281 207.797 12.4198 208.652 12.7681C209.538 13.1165 211.644 13.3698 214.969 13.5281C217.091 13.6231 218.817 13.7656 220.147 13.9556C221.508 14.1456 222.727 14.4465 223.804 14.8581C224.912 15.2381 225.752 15.7923 226.322 16.5206C226.892 17.2173 227.319 18.0881 227.604 19.1331C227.921 20.1781 228.079 21.4765 228.079 23.0281V24.2631C228.079 27.7465 227.018 30.2006 224.897 31.6256C222.807 33.0506 219.244 33.7631 214.209 33.7631H212.974C207.749 33.7631 204.092 33.0031 202.002 31.4831C199.943 29.9631 198.882 27.2715 198.819 23.4081H207.369C207.369 24.7065 207.797 25.5931 208.652 26.0681C209.507 26.5115 211.185 26.7331 213.687 26.7331C215.872 26.7331 217.36 26.5431 218.152 26.1631C218.943 25.7831 219.339 25.0865 219.339 24.0731C219.339 22.8381 218.88 22.0465 217.962 21.6981C217.075 21.3498 214.985 21.0965 211.692 20.9381C206.562 20.7165 203.094 20.004 201.289 18.8006C199.516 17.5656 198.629 15.0798 198.629 11.3431V10.1081C198.629 6.71979 199.674 4.31313 201.764 2.88813C203.886 1.43146 207.369 0.703125 212.214 0.703125Z" fill="#733DC4"/>
    <path d="M231.763 1.08313H240.503V20.3681C240.503 22.6165 240.946 24.1523 241.833 24.9756C242.751 25.7673 244.508 26.1631 247.105 26.1631C249.702 26.1631 251.443 25.7673 252.33 24.9756C253.248 24.1523 253.708 22.6165 253.708 20.3681V1.08313H262.448V21.6981C262.448 25.9098 261.276 28.9815 258.933 30.9131C256.621 32.8131 252.9 33.7631 247.77 33.7631H246.44C241.31 33.7631 237.573 32.8131 235.23 30.9131C232.918 28.9815 231.763 25.9098 231.763 21.6981V1.08313Z" fill="#733DC4"/>
    <path d="M279.66 0.703125H280.895C286.025 0.703125 289.604 1.46312 291.63 2.98312C293.689 4.47146 294.75 7.09979 294.813 10.8681H286.263C286.263 9.63312 285.835 8.80979 284.98 8.39813C284.157 7.95479 282.558 7.73313 280.183 7.73313C278.125 7.73313 276.715 7.92313 275.955 8.30313C275.195 8.68313 274.815 9.37979 274.815 10.3931C274.815 11.6281 275.243 12.4198 276.098 12.7681C276.985 13.1165 279.09 13.3698 282.415 13.5281C284.537 13.6231 286.263 13.7656 287.593 13.9556C288.955 14.1456 290.174 14.4465 291.25 14.8581C292.359 15.2381 293.198 15.7923 293.768 16.5206C294.338 17.2173 294.765 18.0881 295.05 19.1331C295.367 20.1781 295.525 21.4765 295.525 23.0281V24.2631C295.525 27.7465 294.465 30.2006 292.343 31.6256C290.253 33.0506 286.69 33.7631 281.655 33.7631H280.42C275.195 33.7631 271.538 33.0031 269.448 31.4831C267.39 29.9631 266.329 27.2715 266.265 23.4081H274.815C274.815 24.7065 275.243 25.5931 276.098 26.0681C276.953 26.5115 278.631 26.7331 281.133 26.7331C283.318 26.7331 284.806 26.5431 285.598 26.1631C286.39 25.7831 286.785 25.0865 286.785 24.0731C286.785 22.8381 286.326 22.0465 285.408 21.6981C284.521 21.3498 282.431 21.0965 279.138 20.9381C274.008 20.7165 270.54 20.004 268.735 18.8006C266.962 17.5656 266.075 15.0798 266.075 11.3431V10.1081C266.075 6.71979 267.12 4.31313 269.21 2.88813C271.332 1.43146 274.815 0.703125 279.66 0.703125Z" fill="#733DC4"/>
</svg>
    