<svg width="266" height="226" viewBox="0 0 266 226" fill="none" xmlns="http://www.w3.org/2000/svg">
    <g filter="url(#filter0_d_947_378)">
    <path d="M99.5578 190.137C116.76 197.541 122.606 198.096 140.63 214.872C140.63 214.872 143.575 217.297 145.828 217.816C148.081 218.335 149.988 217.643 151.027 217.124C152.067 216.605 163.933 211.244 174.25 204.325C184.566 197.407 189.174 190.315 191.927 185.645C194.679 180.976 196.897 172.08 197.992 162.986C198.622 157.755 198.896 154.759 198.512 149.504C198.116 144.087 197.435 141.055 195.912 135.84C194.34 130.458 193.017 127.555 190.54 122.522C188.011 117.384 183.088 109.377 183.088 109.377C183.088 109.377 178.368 100.349 177.196 92.6003L177.174 92.4555C176.458 87.7239 175.984 84.5919 176.156 79.4552C176.294 75.3042 177.196 74.7777 177.196 74.7777C177.196 74.7777 179.597 78.991 181.875 81.0119C184.567 83.3999 187.714 84.9106 191.233 85.6742C197.645 87.0655 207.524 85.6666 210.123 85.6742C212.723 85.6818 215.69 85.2469 218.961 87.0655C222.025 88.7689 225.374 93.6304 225.374 93.6304C225.374 93.6304 229.532 99.0074 234.038 99.6992C238.544 100.391 243.224 100.383 249.809 98.8268C254.96 97.6094 259.223 96.4433 261.247 91.5625C263.326 86.5495 260.728 82.7263 257.955 78.0639C255.182 73.4016 209.257 26.5216 209.257 26.5216C209.257 26.5216 209.832 21.7723 210.297 18.743C210.609 16.7136 210.643 16.6705 210.989 13.9032C211.114 12.9069 211.149 11.5385 210.297 11.1358C209.466 10.7427 208.922 11.0266 208.044 11.3011C205.592 12.0675 202.499 13.9001 201.804 13.3843C201.11 12.8685 201.615 10.7899 201.804 8.71435C201.994 6.63882 202.499 2.83058 202.499 2.83058C202.499 2.83058 202.672 0.742235 201.458 0.0583515C200.245 -0.625532 194.895 4.85735 191.061 8.36532C187.074 12.0129 181.528 18.3918 181.528 18.3918C181.528 18.3918 169.716 21.1794 162.639 24.2777C153.113 28.4482 147.941 31.6268 140.11 38.4605C133.285 44.4164 130.179 48.6026 124.859 55.9295C119.5 63.3104 112.901 75.9877 112.901 75.9877C112.901 75.9877 129.05 83.441 138.897 89.138C149.289 95.1504 155.459 98.2413 164.545 106.082C170.556 111.27 174.229 114.099 178.756 120.617C180.641 123.33 181.645 124.91 183.088 127.881C184.815 131.436 186.554 137.388 186.554 137.388C186.554 137.388 177.443 123.414 169.918 115.947C164.737 110.807 161.431 108.315 155.534 104.013C147.296 98.0033 141.98 95.6671 133.177 90.5163C105.493 74.3164 85.692 67.9284 60.5637 52.1198L60.1548 51.8625C35.3672 36.2684 29.1077 32.3305 12.9061 18.397C10.3842 16.2282 7.70706 14.9378 5.80061 15.6299C4.66886 16.0408 4.12514 18.0482 4.06717 19.9529C3.89347 25.6598 3.99628 26.6391 5.10741 32.2307C5.65025 34.9624 5.98691 36.4976 6.84036 39.1491C7.6857 41.7754 9.43967 45.7191 9.43967 45.7191C9.43967 45.7191 10.9537 49.396 12.2127 51.6023C13.4669 53.8 15.8521 56.9641 15.8521 56.9641C15.8521 56.9641 18.1896 60.0974 19.838 61.9799C21.5074 63.8863 22.5573 64.8524 24.3439 66.6499C28.086 70.4146 34.2222 75.9877 34.2222 75.9877C34.2222 75.9877 40.6038 81.4774 44.9669 84.6378C49.2814 87.7631 51.8561 89.3002 56.4048 92.0751C61.0605 94.9151 63.7609 96.3584 68.536 98.9935C73.438 101.699 81.187 105.739 81.187 105.739C86.2212 108.32 94.1844 112.136 94.1844 112.136C101.131 115.632 111.861 121.305 111.861 121.305C111.861 121.305 121.018 126.562 126.765 130.126C129.764 131.986 131.483 132.973 134.391 134.969C137.023 136.776 138.42 137.9 140.976 139.812C143.565 141.749 145.122 142.707 147.562 144.828C149.402 146.428 152.067 149.15 152.067 149.15L139.417 142.234C133.093 138.851 129.526 136.995 123.126 133.759C117.537 130.933 114.392 129.369 108.742 126.667C103.089 123.964 99.8571 122.581 94.1844 119.919C83.3096 114.816 77.2145 111.947 66.4563 106.604C60.9556 103.872 57.8592 102.362 52.4187 99.5124C47.5111 96.9419 39.9409 92.7641 39.9409 92.7641C39.9409 92.7641 31.7958 88.6159 28.8497 87.2322C27.7551 86.7181 26.9587 88.2808 27.1165 89.4779C27.9833 96.0532 28.5686 98.7856 30.7558 104.353C33.3363 110.921 39.9409 119.919 39.9409 119.919C43.6785 125.422 45.6908 128.651 50.3391 133.413C55.0746 138.263 58.1423 140.657 63.8567 144.309C69.8207 148.121 72.4924 149.225 79.1075 151.75C90.892 156.247 90.8921 156.42 109.089 163.165C112.267 164.343 114.624 165.486 117.581 167.143C121.047 169.086 125.206 171.81 125.206 171.81C125.206 171.81 128.061 173.455 129.538 174.923C130.804 176.181 132.311 178.552 132.311 178.552C132.311 178.552 121.846 172.646 114.808 169.562C108.65 166.863 105.014 165.792 98.6904 163.508L98.5317 163.451C91.627 160.956 87.7042 159.539 80.6671 157.281L79.9558 157.053C73.8694 155.1 70.2396 153.935 63.8566 152.263C59.951 151.24 55.2659 149.155 53.8053 149.844C52.3446 150.533 52.8112 152.341 53.0377 154.365C53.5877 159.278 55.2449 161.861 57.7912 166.102C60.4326 170.501 62.2993 172.895 66.283 176.134C70.3909 179.474 73.4387 180.298 78.2409 182.534C86.2527 186.263 91.4401 186.643 99.5578 190.137Z" fill="#733DC4"/>
    </g>
    <defs>
    <filter id="filter0_d_947_378" x="0" y="0" width="266" height="226" filterUnits="userSpaceOnUse" color-interpolation-filters="sRGB">
    <feFlood flood-opacity="0" result="BackgroundImageFix"/>
    <feColorMatrix in="SourceAlpha" type="matrix" values="0 0 0 0 0 0 0 0 0 0 0 0 0 0 0 0 0 0 127 0" result="hardAlpha"/>
    <feOffset dy="4"/>
    <feGaussianBlur stdDeviation="2"/>
    <feComposite in2="hardAlpha" operator="out"/>
    <feColorMatrix type="matrix" values="0 0 0 0 0.0875 0 0 0 0 0.0875 0 0 0 0 0.0875 0 0 0 0.5 0"/>
    <feBlend mode="normal" in2="BackgroundImageFix" result="effect1_dropShadow_947_378"/>
    <feBlend mode="normal" in="SourceGraphic" in2="effect1_dropShadow_947_378" result="shape"/>
    </filter>
    </defs>
</svg>
    